<?xml version="1.0" encoding="UTF-8"?>
<svg id="Layer_2" data-name="Layer 2" xmlns="http://www.w3.org/2000/svg" viewBox="0 0 58 51">
  <defs>
    <style>
      .cls-1 {
        opacity: .15;
      }

      .cls-2 {
        fill: none;
      }

      .cls-3 {
        fill: #99aa5e;
      }
    </style>
  </defs>
  <g id="Layer_1-2" data-name="Layer 1">
    <g>
      <rect class="cls-2" width="58" height="51"/>
      <g class="cls-1">
        <path class="cls-3" d="M29.2,34.73c-.51,0-1.03-.03-1.53-.09-.11-.01-.22-.03-.33-.04-1.67-.25-3.05-1.18-4.11-2.77-2.23-3.36-3.33-6.73-3.36-10.31-.01-2.17,.49-4.12,1.51-5.81,1.1-1.83,2.74-2.83,4.61-2.83,.88,0,1.76,.23,2.64,.67,1.25,.64,2.4,1.41,3.51,2.16l.39,.26c.27,.18,.54,.37,.8,.56l.04,.03c.86,.61,1.68,1.19,2.56,1.47,1.44,.46,2.43,.29,3.33-.64,.56-.58,.96-1.29,1.14-2.03-.38,.3-.81,.52-1.27,.65-.38,.1-.76,.15-1.15,.15-2.38,0-4.38-1.91-4.56-4.35-.11-1.56,.39-3.13,1.41-4.4,1.04-1.29,2.47-2.11,4.03-2.31,.41-.05,.81-.08,1.2-.08h0c2.73,0,5.08,1.25,6.79,3.6,1.9,2.61,2.59,5.65,2.11,9.31-.57,4.38-2.28,7.98-5.07,10.7-2.19,2.14-4.86,3.71-7.94,4.69-1.07,.34-2.14,.63-3.15,.9-1.2,.33-2.42,.49-3.62,.49Zm-3.2-21.6c-1.78,0-3.33,.96-4.39,2.71-1,1.65-1.49,3.56-1.48,5.68,.02,3.52,1.11,6.85,3.32,10.17,1.02,1.53,2.34,2.43,3.94,2.66,.1,.02,.21,.03,.32,.04,1.63,.2,3.36,.06,5.06-.39,1-.27,2.07-.56,3.14-.9,3.04-.96,5.67-2.52,7.84-4.63,2.75-2.68,4.43-6.24,5-10.56,.47-3.59-.21-6.57-2.07-9.13-1.67-2.29-3.94-3.5-6.59-3.5h0c-.38,0-.77,.02-1.16,.07-1.5,.19-2.87,.97-3.87,2.22-.98,1.23-1.46,2.73-1.35,4.23,.17,2.31,2.06,4.11,4.31,4.11,.37,0,.73-.05,1.09-.15,.54-.15,1.04-.44,1.44-.84l.27-.27-.06,.37c-.14,.92-.6,1.82-1.28,2.53-.96,1-2.04,1.19-3.58,.7-.92-.29-1.75-.88-2.63-1.5l-.04-.03c-.26-.18-.52-.37-.8-.55l-.38-.26c-1.12-.75-2.26-1.52-3.5-2.15-.84-.43-1.69-.64-2.53-.64Zm3.2,20.07c-.45,0-.91-.03-1.35-.08-.09-.01-.19-.02-.28-.04-1.22-.18-2.25-.89-3.05-2.1-2.06-3.11-3.08-6.2-3.1-9.47-.01-1.88,.42-3.56,1.29-5,.82-1.35,1.98-2.09,3.29-2.09,.63,0,1.29,.17,1.95,.5,1.17,.6,2.29,1.35,3.37,2.08l.37,.25c.27,.18,.54,.37,.81,.56,.92,.65,1.87,1.33,2.98,1.68,2.02,.64,3.6,.31,4.89-1.03,1.7-1.76,2.17-4.28,1.17-6.28-.45-.9-1.08-1.4-1.91-1.52-.5-.07-.9,.11-1.15,.54-.08,.14-.1,.27-.05,.37,.04,.09,.15,.15,.29,.17,1.12,.14,1.43,.28,1.46,.97,.04,.79-.59,1.59-1.43,1.81-.25,.07-.5,.1-.75,.1-1.58,0-2.91-1.28-3.03-2.92-.18-2.45,1.7-4.78,4.1-5.08,2.71-.34,4.92,.65,6.56,2.91,1.65,2.28,2.25,4.96,1.83,8.21-.53,4.08-2.04,7.29-4.62,9.8-2.02,1.97-4.49,3.42-7.33,4.33-1.03,.33-2.09,.62-3.08,.89-1.07,.29-2.16,.44-3.22,.44Zm-3.2-18.54c-1.24,0-2.3,.68-3.08,1.97-.85,1.4-1.27,3.04-1.26,4.87,.02,3.22,1.02,6.27,3.06,9.33,.77,1.15,1.74,1.83,2.88,2,.09,.01,.18,.03,.28,.04,1.45,.17,2.97,.06,4.47-.35,.99-.27,2.05-.56,3.07-.88,2.81-.89,5.24-2.33,7.23-4.27,2.54-2.47,4.02-5.63,4.55-9.66,.41-3.18-.17-5.81-1.79-8.03-1.58-2.18-3.72-3.13-6.32-2.81-2.27,.28-4.05,2.49-3.88,4.81,.11,1.51,1.33,2.69,2.78,2.69,.23,0,.46-.03,.68-.09,.73-.2,1.28-.88,1.25-1.56-.02-.48-.13-.6-1.24-.74-.23-.03-.4-.14-.48-.31-.09-.18-.06-.39,.06-.61,.3-.52,.79-.76,1.41-.66,.92,.14,1.61,.68,2.1,1.66,1.05,2.09,.56,4.73-1.21,6.57-1.37,1.41-3.03,1.77-5.15,1.1-1.15-.36-2.12-1.05-3.05-1.72-.27-.19-.53-.38-.81-.56l-.38-.25c-1.07-.72-2.18-1.47-3.34-2.06-.62-.32-1.24-.48-1.83-.48Zm7.07,12.18c-1.22,0-2.34-.98-2.49-2.18-.08-.64,.11-1.3,.52-1.83,.41-.53,1.01-.87,1.64-.95,1.41-.18,2.66,.87,2.8,2.22,.14,1.33-.88,2.58-2.22,2.73-.08,0-.17,.01-.25,.01Zm-.03-4.73c-.09,0-.18,0-.27,.02-.57,.07-1.11,.38-1.47,.86-.37,.48-.54,1.08-.47,1.65,.14,1.13,1.29,2.08,2.46,1.95,1.21-.14,2.13-1.26,2-2.46-.12-1.13-1.11-2.01-2.25-2.01Zm.03,3.2c-.44,0-.91-.41-.97-.84-.03-.23,.05-.49,.21-.7,.16-.21,.39-.34,.62-.37,.53-.06,1.03,.35,1.08,.85,.05,.5-.35,.99-.87,1.05-.02,0-.05,0-.08,0Zm-.03-1.66s-.05,0-.08,0c-.17,.02-.33,.12-.45,.28-.12,.16-.18,.34-.16,.51,.04,.32,.44,.66,.77,.61,.38-.04,.69-.41,.65-.78-.04-.34-.37-.63-.73-.63Z"/>
        <path class="cls-3" d="M20.72,45.97c-1.03,0-2.13,0-3.49,0h-4.47s-1.45,0-1.45,0c-.84,0-1.49-.27-1.93-.81-.44-.53-.59-1.21-.44-2.02,.94-5.14,3.51-9.32,7.62-12.41,.62-.47,1.32-.72,2.03-.72,1.19,0,2.24,.68,2.89,1.87l.04,.08c.49,.9,.96,1.75,1.51,2.5,1.1,1.49,2.61,2.18,4.75,2.18,.11,0,.21,0,.32,0,2.24-.07,4.46-.76,6.36-1.4,.25-.08,.49-.17,.76-.27,.33-.12,.66-.24,1.01-.35,.37-.12,.74-.18,1.11-.18,1.43,0,2.6,.89,2.96,2.27,.59,2.25,1.1,4.6,1.52,6.5,.21,.94-.1,1.57-.39,1.93-.44,.55-1.1,.83-1.97,.83-.64,0-1.29,0-1.93,0h-5.41c-.8,0-1.45,0-2.05,0h-.04c-1.27,0-2.19-.71-2.42-1.86-.66,.15-1.27,.22-1.86,.22-.88,0-1.71-.17-2.48-.5-.04,.09-.07,.17-.09,.25-.51,1.65-1.76,1.89-2.45,1.89Zm-3.49-.26c1.36,0,2.47,0,3.48,0,.64,0,1.76-.22,2.23-1.72,.04-.12,.08-.24,.15-.39l.05-.12,.12,.05c.77,.35,1.6,.53,2.49,.53,.61,0,1.24-.08,1.93-.24l.13-.03,.02,.13c.17,1.1,1.01,1.78,2.2,1.78h.04c.59,0,1.25,0,2.05,0h5.41c.64,0,1.29,0,1.93,0,.79,0,1.38-.25,1.77-.74,.26-.32,.52-.88,.34-1.72-.41-1.89-.93-4.24-1.51-6.49-.33-1.27-1.4-2.08-2.71-2.08-.34,0-.69,.06-1.04,.17-.35,.11-.68,.23-1,.35-.26,.1-.51,.19-.76,.27-1.92,.64-4.16,1.33-6.43,1.41-.11,0-.22,0-.33,0-2.23,0-3.8-.72-4.96-2.28-.57-.76-1.03-1.62-1.53-2.53l-.04-.08c-.6-1.1-1.58-1.74-2.67-1.74-.65,0-1.3,.23-1.88,.67-4.06,3.06-6.59,7.18-7.52,12.26-.13,.73,0,1.34,.39,1.82,.4,.48,.98,.72,1.74,.72h1.45s4.47,0,4.47,0Zm3.49-1.28c-1.17,0-2.33,0-3.49,0h-4.47s-1.45,0-1.45,0c-.37,0-.61-.08-.76-.26-.14-.17-.18-.42-.11-.76,.87-4.75,3.24-8.61,7.04-11.46,.36-.27,.73-.41,1.1-.41,.62,0,1.17,.38,1.54,1.07l.05,.1c.49,.9,1,1.83,1.62,2.66,1.39,1.88,3.35,2.8,5.99,2.8,.12,0,.25,0,.37,0,2.45-.08,4.79-.8,6.8-1.47,.27-.09,.53-.18,.79-.28,.32-.12,.64-.23,.96-.34,.21-.07,.43-.1,.64-.1,.73,0,1.29,.43,1.47,1.12,.57,2.19,1.07,4.44,1.5,6.44,.06,.28,.03,.49-.09,.64-.14,.17-.38,.25-.78,.26-.64,0-1.28,0-1.92,0h-5.41c-.69,0-1.38,0-2.07,0-.63,0-.94-.27-.97-.83,0,0,0-.02,0-.03-.24-1.05-.33-1.25-.57-1.25-.13,0-.32,.05-.57,.12-.11,.03-.24,.06-.37,.1-1.84,.47-3.23,.29-4.45-.55-.3-.2-.54-.16-.71,.14-.25,.44-.53,.96-.69,1.49-.15,.49-.38,.81-.99,.81Zm-3.49-.26c1.16,0,2.32,0,3.49,0,.42,0,.61-.15,.76-.64,.17-.55,.46-1.08,.71-1.54,.18-.32,.42-.39,.59-.39,.15,0,.31,.06,.48,.17,1.16,.8,2.48,.96,4.25,.51,.14-.03,.26-.07,.37-.1,.27-.08,.47-.13,.64-.13,.47,0,.58,.42,.82,1.44,0,.03,0,.06,.01,.08,.02,.43,.22,.59,.7,.59,.71,0,1.4,0,2.09,0h5.41c.64,0,1.28,0,1.92,0,.31,0,.5-.06,.58-.16,.07-.09,.08-.23,.04-.43-.43-1.99-.93-4.24-1.5-6.43-.15-.59-.61-.94-1.23-.94-.18,0-.38,.03-.56,.09-.32,.1-.63,.22-.95,.33-.27,.1-.53,.19-.8,.28-2.03,.68-4.39,1.41-6.87,1.49-2.89,.1-5.06-.85-6.57-2.9-.62-.84-1.14-1.78-1.64-2.69l-.05-.1c-.53-.97-1.44-1.21-2.28-.58-3.74,2.82-6.08,6.62-6.94,11.31-.05,.27-.03,.45,.06,.56,.09,.11,.28,.16,.56,.17h1.45s4.47,0,4.47,0Z"/>
      </g>
    </g>
  </g>
</svg>