<?xml version="1.0" encoding="UTF-8"?>
<svg xmlns="http://www.w3.org/2000/svg" viewBox="0 0 317.63 128.8">
  <defs>
    <style>
      .cls-1 {
        fill: #454847;
      }

      .cls-2 {
        fill: #a0864b;
      }

      .cls-3 {
        fill: #a6afa7;
      }

      .cls-4 {
        fill: #a0051f;
      }

      .cls-5 {
        fill: #dcd6b8;
      }

      .cls-6 {
        fill: #535f31;
      }

      .cls-7 {
        fill: none;
        stroke: #99aa5e;
        stroke-miterlimit: 10;
      }

      .cls-8 {
        fill: #070606;
      }

      .cls-9 {
        fill: #29292d;
      }

      .cls-10 {
        isolation: isolate;
      }

      .cls-11 {
        fill: #1e1d22;
      }

      .cls-12 {
        fill: #fffbe6;
      }

      .cls-13 {
        fill: #292d20;
      }

      .cls-14 {
        fill: #b0b3a1;
      }

      .cls-15 {
        fill: #9b9591;
      }

      .cls-16 {
        fill: #6b636d;
      }

      .cls-17 {
        fill: #1e2118;
      }

      .cls-18 {
        fill: #7f5c28;
      }

      .cls-19 {
        fill: #1a1d1f;
      }

      .cls-20 {
        fill: #4f4f54;
      }

      .cls-21 {
        fill: #99aa5e;
      }

      .cls-22 {
        mix-blend-mode: multiply;
      }
    </style>
  </defs>
  <g class="cls-10">
    <g id="Layer_2" data-name="Layer 2">
      <g id="Layer_1-2" data-name="Layer 1">
        <g>
          <g>
            <g>
              <polygon class="cls-17" points="153.93 15.01 153.51 15.01 153.8 16.09 154.03 16.36 154.11 21.06 153.36 21.92 157.19 21.92 160.15 20.46 158.4 14.91 153.93 15.01"/>
              <path class="cls-9" d="M151.31,24.93l-.16,3.83,7.15,1.03,5.02,4.46,6.95,.39,19.86,2.13,.68,1.51,104.28-.53,1.97-8.06-2.92-9.64s-7.19-4.42-7.5-4.42-11.29,0-11.69,.08-14.22,8.53-14.22,8.53l-54.65,2.45s-8.53-7.74-8.69-7.98-12.24-7.82-12.24-7.82l-11.69-.24-8.14,6.79s-1.9,6.71-4.11,6.95c-2.21,.24-9.91,.51-9.91,.51Z"/>
              <circle class="cls-8" cx="180.65" cy="28.12" r="13.01"/>
              <circle class="cls-2" cx="180.76" cy="28.15" r="11.34"/>
              <circle class="cls-18" cx="180.76" cy="28.15" r="10.24"/>
              <circle class="cls-9" cx="180.76" cy="28.15" r="9.11"/>
              <circle class="cls-20" cx="180.76" cy="28.15" r="6.52"/>
              <circle class="cls-18" cx="180.76" cy="28.15" r="4.33"/>
              <circle class="cls-8" cx="281.73" cy="29.91" r="11.95"/>
              <circle class="cls-2" cx="281.84" cy="29.94" r="10.43"/>
              <circle class="cls-18" cx="281.84" cy="29.94" r="9.53"/>
              <circle class="cls-9" cx="281.84" cy="29.94" r="8.48"/>
              <circle class="cls-20" cx="281.84" cy="29.94" r="6.52"/>
              <circle class="cls-18" cx="281.84" cy="29.94" r="3.59"/>
              <path class="cls-6" d="M313.97,33.15s2.82-2.79,3.66-5.56c-4.71-4.05-14.4-12.74-36.28-15.03l-2.55,.24s-20.59-9.16-32.83-10.98S225.67-.15,220.38,.09c-5.29,.24-13.11,.95-13.11,.95l-.79,.71s-27.56,2.84-35.46,4.19-19.43,2.84-19.75,3.24,.39,.83,.39,.83l5.49,1.07s3.12,9.44,3,9.4-2.96,1.46-2.96,1.46h-3.83s.75-.87,.75-.87l-3.83-.12s-.71,.28-.79,1.46,5.13,6.24,5.13,6.24l3.75,.67,4.5-.55,3.87,2.57s-.16-6.63-.16-6.75,2.37-6.79,5.69-9.4c2.05-1.42,6.83-1.86,11.61-1.26,4.78,.59,8.08,3.9,8.58,4.61s1.29,2.9,1.29,2.9l2.66,1,4.4,6.56-2.79,6.19s-3.79,.63-3.87,.63-.16,.79-.16,.79l-2.5-.03-.68,1.74,81.51,.95-2.79-1.26-1.32-5s.74-9.16,4.16-12.64c3.42-3.48,7.95-3.94,13.2-2.99s7.9,5.33,8.61,7.31c.71,1.97,1.62,6.67,1.07,9.48-.55,2.8-1.26,4.46-1.26,4.46,0,0,17.3-.32,19.07-.32s3.36-.32,3.51-.91-2.61-4.21-2.61-4.21Z"/>
              <polygon class="cls-2" points="284.53 20.46 284.42 25.58 288.71 22.62 289.13 23.04 283.09 27.99 283.89 20.38 284.53 20.46"/>
              <polygon class="cls-2" points="276 22.08 279.86 25.46 280.34 20.27 280.93 20.21 280.84 28.02 275.53 22.52 276 22.08"/>
              <polygon class="cls-2" points="291.01 34.32 285.98 33.33 288.16 38.06 287.67 38.41 283.84 31.6 291.19 33.7 291.01 34.32"/>
              <polygon class="cls-2" points="291.03 25.79 287.05 29.01 292.08 30.38 292.03 30.97 284.35 29.55 290.68 25.26 291.03 25.79"/>
              <polygon class="cls-2" points="272.62 33.78 277.69 33.05 275.26 37.67 275.73 38.04 279.91 31.45 272.46 33.15 272.62 33.78"/>
              <polygon class="cls-2" points="273 25.31 276.94 28.58 271.9 29.88 271.94 30.48 279.63 29.14 273.36 24.78 273 25.31"/>
              <polygon class="cls-2" points="283.42 40.03 281.55 35.28 278.73 39.71 278.17 39.49 281.75 32.55 284.04 39.84 283.42 40.03"/>
              <circle class="cls-9" cx="281.84" cy="29.94" r="1.21"/>
              <g>
                <polygon class="cls-2" points="183.69 17.84 183.57 23.41 188.24 20.19 188.7 20.65 182.13 26.03 183 17.75 183.69 17.84"/>
                <polygon class="cls-2" points="174.41 19.6 178.61 23.28 179.14 17.63 179.78 17.57 179.68 26.06 173.9 20.08 174.41 19.6"/>
                <polygon class="cls-2" points="190.74 32.91 185.27 31.84 187.65 36.99 187.11 37.36 182.95 29.96 190.94 32.24 190.74 32.91"/>
                <polygon class="cls-2" points="190.77 23.64 186.43 27.14 191.91 28.63 191.85 29.28 183.5 27.72 190.38 23.05 190.77 23.64"/>
                <polygon class="cls-2" points="170.73 32.33 176.25 31.54 173.61 36.56 174.11 36.96 178.67 29.79 170.56 31.65 170.73 32.33"/>
                <polygon class="cls-2" points="171.15 23.11 175.44 26.67 169.95 28.09 169.99 28.74 178.36 27.29 171.54 22.53 171.15 23.11"/>
                <polygon class="cls-2" points="182.49 39.13 180.45 33.97 177.38 38.78 176.78 38.55 180.66 30.99 183.16 38.93 182.49 39.13"/>
              </g>
              <circle class="cls-9" cx="180.76" cy="28.15" r="1.72"/>
              <path class="cls-13" d="M274.44,13.43s-12.91-6.32-24.97-8.37c-12.06-2.05-24.14-2.87-33.25-.45-1.32,1.58-3.05,4.05-3.05,4.05,0,0,43.31,6.82,48.31,6.82,5,0,12.97-2.05,12.97-2.05Z"/>
              <polygon class="cls-17" points="314.44 28.95 311.17 27.53 307.18 34.13 309.43 35.86 312.98 35.63 312.19 31.95 313.3 29.59 314.44 28.95"/>
              <path class="cls-17" d="M193.76,21.41s2.05,6.66,2.11,8.19-1.71,6.19-1.71,6.19l3.87-.63,2.79-6.19-4.4-6.56-2.66-1Z"/>
              <path class="cls-17" d="M209.48,13.59s-3.36,.63-5.61,1.38c2.88,4.46,8.02,12.16,8.49,12.48s5.65,1.58,5.65,1.58c0,0-3.12-2.29-4.26-3.87s-5.69-10.11-5.69-10.11l1.42-1.46Z"/>
              <polygon class="cls-8" points="209.48 13.59 211.22 20.74 207.58 15.13 209.48 13.59"/>
              <polygon class="cls-21" points="157.15 11.06 172.28 15.17 157.59 12.54 157.15 11.06"/>
              <path class="cls-4" d="M151.66,10s-.05,.72,2.26,5.02h4.58s-1.36-3.95-1.36-3.95l-5.49-1.07Z"/>
              <polygon class="cls-17" points="224.55 3.32 225.49 10.59 220.8 9.87 220.65 3.72 224.55 3.32"/>
              <g class="cls-22">
                <path class="cls-15" d="M265.61,33.27l2.57-13.98-5.37-3.97c-.07-.05-.17-.04-.22,.03-.05,.07-.04,.17,.03,.22l5.21,3.85-2.48,13.51-39.98-2.3-.2-2c-.16-.53-3.86-12.17-4.46-13.55-.51-1.18-1.55-2.49-1.91-2.92l3.24-1.91c.08-.04,.1-.14,.06-.22-.04-.08-.14-.1-.22-.06l-3.56,2.1,.12,.14s1.39,1.63,1.98,2.99c.6,1.37,4.41,13.37,4.44,13.49l.22,2.23h.14s40.39,2.33,40.39,2.33Z"/>
              </g>
              <path class="cls-17" d="M211.77,2.85s-9.95,3.21-13.64,5.32c-5.21-.42-9.16-1.05-9.16-1.05,0,0,10.69-4.95,17.51-5.37l5.29,1.11Z"/>
              <path class="cls-17" d="M216.67,3.27l-4.9-.42s-7.74,2.69-10.69,4c4.74,.68,11.48,1.68,11.48,1.68l3.05-4.05s1.61-1,5.63-1.55c-3.24,.16-4.58,.34-4.58,.34Z"/>
              <path class="cls-12" d="M213.95,3.51s-2.45,1.11-3.76,3.08c1.18,1.08,1.97,1.68,1.97,1.68l1.79-4.77Z"/>
              <polygon class="cls-17" points="264.37 34.13 259.5 37.55 226.75 37.15 264.37 34.13"/>
              <path class="cls-17" d="M311.78,23.78l-2.87,.24-12.64-5.79,2.47-.47s10.11,2.58,13.03,6.03Z"/>
              <path class="cls-21" d="M269.9,19.75s-70.77-11.27-78.35-10.95c23.69,4,22.85,3.79,22.85,3.79l-4.92,1,1.13,4.48s1.79-2.53,10.43-2.42c8.64,.11,46.34,5.37,48.86,4.11Z"/>
              <g>
                <circle class="cls-11" cx="281.78" cy="27.99" r=".45"/>
                <circle class="cls-11" cx="283.51" cy="29.43" r=".45"/>
                <circle class="cls-11" cx="282.81" cy="31.55" r=".45"/>
                <circle class="cls-11" cx="280.75" cy="31.5" r=".45"/>
                <circle class="cls-11" cx="280.04" cy="29.37" r=".45"/>
              </g>
              <g>
                <circle class="cls-11" cx="180.77" cy="26.38" r=".45"/>
                <circle class="cls-11" cx="182.5" cy="27.82" r=".45"/>
                <circle class="cls-11" cx="181.8" cy="29.93" r=".45"/>
                <circle class="cls-11" cx="179.75" cy="29.89" r=".45"/>
                <circle class="cls-11" cx="179.03" cy="27.75" r=".45"/>
              </g>
              <path class="cls-21" d="M218.01,29.03l49.68,4.07s-46.32-7.54-49.17-7.38c-2.84,.16-3.87,.51-3.87,.51l3.36,2.8Z"/>
              <path class="cls-21" d="M192.02,9.22l-31.8,2.42-2.32-.63s16.38-2.95,23.96-2.74c7.58,.21,10.16,.95,10.16,.95Z"/>
              <polygon class="cls-21" points="203.87 14.97 192.3 18.45 204.23 15.53 203.87 14.97"/>
              <polygon class="cls-21" points="316.81 28.6 294.07 23.31 311.17 27.53 314.44 28.95 316.81 28.6"/>
              <path class="cls-12" d="M261.34,16.25s-.18-1.13,0-1.42,3.32-3.4,3.42-3.79-1.55-2.74-7.03-2.29c-.5,.68-.24,3.76,2.61,4.21l-3.05,3.16,1.47,.71,2.58-.58Z"/>
            </g>
            <g id="_6" data-name="6">
              <path class="cls-19" d="M65.2,100.84c-7.71,0-13.96,6.25-13.96,13.96s6.25,13.96,13.96,13.96,13.96-6.25,13.96-13.96-6.25-13.96-13.96-13.96Zm0,25.07c-6.13,0-11.11-4.97-11.11-11.11s4.97-11.11,11.11-11.11,11.11,4.97,11.11,11.11-4.97,11.11-11.11,11.11Z"/>
              <path class="cls-12" d="M65.2,102.63c-6.73,0-12.18,5.45-12.18,12.18s5.45,12.18,12.18,12.18,12.18-5.45,12.18-12.18-5.45-12.18-12.18-12.18Zm0,22.87c-5.9,0-10.69-4.79-10.69-10.69s4.79-10.69,10.69-10.69,10.69,4.79,10.69,10.69-4.79,10.69-10.69,10.69Z"/>
              <path class="cls-6" d="M54.51,114.75c.03-5.88,4.8-10.63,10.69-10.63s10.65,4.75,10.69,10.63h1.49c-.03-6.7-5.47-12.12-12.18-12.12s-12.15,5.42-12.18,12.12h1.49Z"/>
              <path class="cls-1" d="M33.52,108.69c0,2,1.62,3.63,3.63,3.63s3.63-1.62,3.63-3.63-1.62-3.63-3.63-3.63-3.63,1.62-3.63,3.63Z"/>
              <path class="cls-1" d="M13.92,119.92h0c-2.34,0-4.36-1.59-4.91-3.86-.32-1.31-.11-2.67,.59-3.83,.7-1.15,1.81-1.97,3.13-2.28,1.58-.38,18.22-4.18,23.29-5.34,.31-.07,.62-.11,.93-.11,1.96,0,3.67,1.4,4.07,3.32l-.65,.23,.67-.14c.43,2.1-.78,4.17-2.84,4.81-6.42,2-21.53,6.68-23.08,7.05-.39,.1-.8,.14-1.2,.14Zm23.03-14.06c-.21,0-.42,.02-.63,.07-3.6,.82-21.66,4.94-23.27,5.34-1.98,.48-3.2,2.49-2.72,4.47,.4,1.66,1.88,2.83,3.59,2.83h0c.29,0,.59-.04,.88-.11,1.51-.37,16.59-5.04,23-7.03,1.38-.43,2.2-1.82,1.91-3.24l.65-.23-.67,.14c-.27-1.29-1.42-2.23-2.74-2.23Z"/>
              <path class="cls-5" d="M76.89,103.33c-1.15-1.16-2.5-2.17-4.03-2.97-7.97-4.16-17.83-.88-22.04,7.07-.94,1.78-1.8,3.42-2.69,5.07l.16,.08c1.86,.98,4.11,.03,4.79-1.96,.35-1.03,.84-2.04,1.47-3,3.33-5.06,9.86-7.12,15.49-4.9,1.03,.41,1.97,.92,2.82,1.53,1.36,.97,3.25,.55,4.03-.93h0Z"/>
              <path class="cls-19" d="M13.96,100.87c-7.71,0-13.96,6.25-13.96,13.96s6.25,13.96,13.96,13.96,13.96-6.25,13.96-13.96-6.25-13.96-13.96-13.96Zm0,25.07c-6.13,0-11.11-4.97-11.11-11.11s4.97-11.11,11.11-11.11,11.11,4.97,11.11,11.11-4.97,11.11-11.11,11.11Z"/>
              <path class="cls-12" d="M13.96,102.65c-6.73,0-12.18,5.45-12.18,12.18s5.45,12.18,12.18,12.18,12.18-5.45,12.18-12.18-5.45-12.18-12.18-12.18Zm0,22.87c-5.9,0-10.69-4.79-10.69-10.69s4.79-10.69,10.69-10.69,10.69,4.79,10.69,10.69-4.79,10.69-10.69,10.69Z"/>
              <path class="cls-6" d="M3.28,114.77c.03-5.88,4.8-10.63,10.69-10.63s10.65,4.75,10.69,10.63h1.49c-.03-6.7-5.47-12.12-12.18-12.12s-12.15,5.42-12.18,12.12h1.49Z"/>
              <path class="cls-5" d="M3.64,102.48c1.26-1.04,2.71-1.91,4.31-2.55,8.35-3.34,17.83,.92,21.21,9.25,.76,1.87,1.45,3.59,2.16,5.31l-.17,.07c-1.95,.79-4.09-.38-4.56-2.43-.24-1.06-.63-2.11-1.16-3.13-2.81-5.37-9.09-8.08-14.92-6.44-1.06,.3-2.05,.72-2.96,1.24-1.45,.83-3.29,.22-3.91-1.33h0Z"/>
              <circle class="cls-19" cx="13.96" cy="114.83" r="3.35"/>
              <circle class="cls-19" cx="65.09" cy="114.92" r="3.35"/>
              <polygon class="cls-21" points="65.19 115.3 49.97 109.11 50.21 108.52 64.99 114.53 75.07 101.74 75.56 102.13 65.19 115.3"/>
              <rect class="cls-3" x="29.05" y="87.18" width="1.1" height="28.33" transform="translate(-33.27 16.52) rotate(-20.26)"/>
              <rect class="cls-21" x="30.29" y="95.71" width="1.65" height="19.5" transform="translate(-34.59 17.3) rotate(-20.26)"/>
              <path class="cls-3" d="M65.09,115.74c-.32,0-.63-.19-.76-.5l-11.73-27.8c-.18-.42,.02-.9,.44-1.08,.42-.18,.9,.02,1.08,.44l11.73,27.8c.18,.42-.02,.9-.44,1.08-.1,.04-.21,.07-.32,.07Z"/>
              <rect class="cls-21" x="55.83" y="85.29" width="2.2" height="20.6" transform="translate(-32.68 29.64) rotate(-22.87)"/>
              <rect class="cls-19" x="60.02" y="102.84" width="2.2" height="5.36" transform="translate(-36.21 32.06) rotate(-22.87)"/>
              <path class="cls-21" d="M34.61,115.74H13.59c-.33,0-.63-.2-.76-.5-.13-.3-.07-.65,.15-.89,.43-.45,10.5-11.18,16.54-14.66,.04-.02,.07-.04,.11-.05l24.09-9.37c.21-.08,.45-.07,.65,.02,.2,.1,.36,.27,.43,.49l.64,1.92c.09,.28,.03,.6-.17,.82l-20.05,21.96c-.16,.17-.38,.27-.61,.27Zm-19.09-1.65h18.72l19.48-21.34-.21-.63-23.22,9.03c-4.57,2.66-11.81,9.88-14.77,12.94Z"/>
              <path class="cls-3" d="M26.29,93.1l-.05-1.1,.55-.03c3.35-.16,3.73-2.4,3.74-2.49l.08-.54,1.08,.15-.07,.54s-.49,3.23-4.78,3.44l-.55,.03Z"/>
              <path class="cls-19" d="M21.63,89.92c4.15,.89,7.63,.06,11.73-.32,.71-.11,1.2-.84,1.1-1.57h0c-.1-.74-.71-1.22-1.36-1.12-3.56,.56-7.07-.13-10.49-1.26-.62-.21-1.72,.02-1.85,1.17l-.08,.79c-.11,1.06,.07,2.04,.96,2.32Z"/>
              <path class="cls-3" d="M52.74,87.39c-.42,0-.82-.1-1.19-.29-1.55-.8-2.46-3.12-3.14-8.01-.12-.87-.4-1.42-.84-1.68-1.19-.69-3.91,.4-6.32,1.36-.74,.29-1.48,.59-2.21,.86-.46,.17-.97-.07-1.14-.53-.17-.46,.07-.97,.53-1.14,.71-.26,1.44-.55,2.16-.84,3.05-1.22,5.94-2.37,7.87-1.25,.93,.54,1.51,1.54,1.7,2.97,.21,1.48,.83,5.97,2.2,6.68,.11,.06,.46,.24,1.26-.17,.44-.23,.97-.06,1.2,.38,.23,.43,.06,.97-.38,1.2-.6,.31-1.16,.46-1.7,.46Z"/>
              <path class="cls-21" d="M38.74,79.68c-.36,0-.7-.22-.83-.58-.17-.46,.07-.97,.53-1.14,.71-.26,1.44-.55,2.16-.84,1.16-.46,2.35-.94,3.45-1.26,.47-.14,.96,.13,1.1,.6,.14,.47-.13,.96-.6,1.1-1.02,.3-2.12,.74-3.29,1.21-.74,.29-1.48,.59-2.21,.86-.1,.04-.2,.05-.3,.05Z"/>
              <path class="cls-16" d="M43.66,100.85l-.55-.02s.04-1.18,.05-1.87c0-.43,.18-.77,.48-.93,.25-.14,.54-.13,.78,.03,.29,.18,.44,.52,.42,.92-.02,.35,.13,.52,.29,.53,.14,.01,.31-.11,.33-.39,.06-.75,.09-1.41,.12-2.06,.04-.76,.08-1.56,.15-2.46l.55,.05c-.08,.89-.11,1.64-.15,2.43-.03,.66-.06,1.32-.12,2.07-.05,.62-.5,.93-.91,.9-.41-.03-.84-.38-.8-1.1,0-.2-.05-.36-.17-.43-.07-.04-.16-.05-.23,0-.12,.07-.19,.23-.19,.46-.01,.7-.05,1.88-.05,1.88Z"/>
              <g>
                <g>
                  <g>
                    <polygon class="cls-16" points="41.68 105.76 38.56 105.71 37.56 100.25 40.52 99.7 41.68 105.76"/>
                    <g>
                      <path class="cls-3" d="M41.94,99.75l-5.57,1.02c-.17,.03-.32-.08-.35-.24h0c-.03-.17,.08-.32,.24-.35l5.57-1.02c.17-.03,.32,.08,.35,.24h0c.03,.17-.08,.32-.24,.35Z"/>
                      <path class="cls-3" d="M41.9,100.81l-5.12,.94c-.17,.03-.32-.08-.35-.24h0c-.03-.17,.08-.32,.24-.35l5.12-.94c.17-.03,.32,.08,.35,.24h0c.03,.17-.08,.32-.24,.35Z"/>
                      <path class="cls-3" d="M41.87,101.81l-4.7,.86c-.17,.03-.32-.08-.35-.24h0c-.03-.17,.08-.32,.24-.35l4.7-.86c.17-.03,.32,.08,.35,.24h0c.03,.17-.08,.32-.24,.35Z"/>
                      <path class="cls-3" d="M41.8,102.81l-4.2,.77c-.17,.03-.32-.08-.35-.24h0c-.03-.17,.08-.32,.24-.35l4.2-.77c.17-.03,.32,.08,.35,.24h0c.03,.17-.08,.32-.24,.35Z"/>
                      <path class="cls-3" d="M41.75,103.81l-3.76,.69c-.17,.03-.32-.08-.35-.24h0c-.03-.17,.08-.32,.24-.35l3.76-.69c.17-.03,.32,.08,.35,.24h0c.03,.17-.08,.32-.24,.35Z"/>
                    </g>
                  </g>
                  <g>
                    <path class="cls-16" d="M41.93,106.04c.82,1.42,.34,3.23-1.08,4.05-1.42,.82-3.23,.34-4.05-1.08-.82-1.42-.34-3.23,1.08-4.05,1.42-.82,3.23-.34,4.05,1.08Z"/>
                    <path class="cls-3" d="M41.49,106.29c.68,1.18,.28,2.69-.9,3.37-1.18,.68-2.69,.28-3.37-.9-.68-1.18-.28-2.69,.9-3.37,1.18-.68,2.69-.28,3.37,.9Z"/>
                    <path class="cls-16" d="M39.24,106.49c.18,.31,.07,.7-.23,.87-.31,.18-.7,.07-.87-.23-.18-.31-.07-.7,.23-.87,.31-.18,.7-.07,.87,.23Z"/>
                  </g>
                  <g>
                    <path class="cls-3" d="M39.88,109.28c-1.29,1.17-2.76,2.02-4.4,2.55-.33,.19-.75,.08-.94-.25l-.39-.67c-.19-.33-.08-.75,.25-.94l4.4-2.55c.33-.19,.75-.08,.94,.25l.39,.67c.19,.33,.08,.75-.25,.94Z"/>
                    <path class="cls-16" d="M35.62,110.51c.12,.21,.05,.47-.16,.59-.21,.12-.47,.05-.59-.16s-.05-.47,.16-.59c.21-.12,.47-.05,.59,.16Z"/>
                    <path class="cls-16" d="M39.47,108.28c.12,.21,.05,.47-.16,.59-.21,.12-.47,.05-.59-.16-.12-.21-.05-.47,.16-.59,.21-.12,.47-.05,.59,.16Z"/>
                    <rect class="cls-16" x="36.11" y="109.31" width="2.21" height=".87" transform="translate(124.39 186.09) rotate(149.94)"/>
                  </g>
                </g>
                <path class="cls-16" d="M36.91,104.44c.16,.28,.07,.63-.21,.79-.28,.16-.63,.07-.79-.21-.16-.28-.07-.63,.21-.79,.28-.16,.63-.07,.79,.21Z"/>
                <rect class="cls-16" x="37.66" y="98.56" width="2.41" height="1.01" rx=".39" ry=".39" transform="translate(95.68 189.05) rotate(169.15)"/>
                <rect class="cls-3" x="42.08" y="101.25" width="2.41" height="1.01" rx=".39" ry=".39" transform="translate(-61.09 138.27) rotate(-86.24)"/>
              </g>
              <path class="cls-5" d="M35.78,94.47l-.03,1.94,.75,.52c1.02,.71,2.32,.88,3.49,.45l10.3-3.83c1.17-.43,2.05-1.41,2.35-2.62l.23-.89-3.9-1.84c-.92-.43-1.98-.48-2.94-.12l-7.78,2.89c-1.46,.54-2.44,1.93-2.47,3.49Z"/>
              <path class="cls-21" d="M39.8,93.51s-.08,0-.11-.03c-.07-.03-.12-.09-.14-.15l-.51-1.38c-.05-.14,.02-.3,.16-.35l5.72-2.12c.07-.03,.14-.02,.21,0,.07,.03,.12,.09,.14,.15l.51,1.38c.05,.14-.02,.3-.16,.35l-5.72,2.12s-.06,.02-.1,.02Zm-.16-1.49l.32,.86,5.2-1.93-.32-.86-5.2,1.93Z"/>
              <path class="cls-19" d="M35.99,96.61l16.77-6.23c.25-.09,.38-.37,.28-.62h0c-.09-.25-.37-.38-.62-.28l-16.77,6.23c-.25,.09-.38,.37-.28,.62h0c.09,.25,.37,.38,.62,.28Z"/>
              <path class="cls-21" d="M7.34,98.39H28.12v-1.77H7.34c-.49,0-.88,.4-.88,.88h0c0,.49,.4,.88,.88,.88Z"/>
              <rect class="cls-21" x="11.02" y="97.27" width="1.1" height="17.88" transform="translate(-23.73 5.37) rotate(-13.08)"/>
              <path class="cls-3" d="M41.11,105.06s.04-.03,.11-.1c.08-.08,.24-.21,.42-.33,.38-.25,1.03-.54,1.9-.49,.43,.03,.92,.16,1.37,.46,.46,.29,.87,.78,1.06,1.38,.05,.16,.08,.28,.11,.48,.02,.13,.04,.24,.04,.42,.01,.34-.02,.64-.08,.96-.13,.63-.39,1.22-.69,1.78-.31,.56-.67,1.1-1.03,1.63-.37,.54-.76,1.1-1.2,1.65-.87,1.1-1.91,2.25-3.3,3.1-.35,.21-.71,.4-1.09,.56-.19,.08-.39,.16-.59,.22l-.3,.1-.07,.02h-.02s-.04,0-.04,0h-.07s-.1,.02-.16,.03l-.35,.03h-.3s-.59,.03-.59,.03c-.39,.01-.79,.03-1.18,.04-1.58,.04-3.18,.11-4.78,.2-.8-.41-1.59,1.35-2.39,.93-.8,.04-1.59,.08-2.38,.11-1.58,.08-3.12,.14-4.62,.18-3,.1-5.8,.15-8.2,.16-2.4,.02-4.4-.01-5.8-.05-1.4-.03-2.2-.07-2.2-.07l.03-4.17s.8-.02,2.2-.04c1.4-.02,3.39-.02,5.79,.01,2.4,.03,5.19,.09,8.18,.21,1.5,.04,3.04,.11,4.61,.18,.79,.03,1.58,.07,2.37,.1,.79-.42,1.6,1.33,2.39,.91,1.6,.07,3.19,.11,4.76,.09,.39,0,.78-.02,1.17-.02l.57-.03,.51-.03s.08,0,.13-.02h.07s.04-.02,.04-.02h.02s-.09,.02-.04,0l.25-.08c.17-.05,.33-.12,.48-.19,.32-.14,.62-.31,.91-.49,1.16-.75,2.08-1.8,2.9-2.86,.41-.53,.79-1.06,1.16-1.58,.37-.53,.72-1.02,1-1.51,.28-.48,.49-.95,.59-1.4,.05-.22,.08-.45,.07-.63,0-.07-.01-.21-.02-.34,0-.05-.03-.17-.05-.24-.2-.67-.81-1-1.34-1.04-.54-.06-.96,.11-1.2,.26-.13,.08-.2,.13-.26,.18-.07,.06-.11,.1-.11,.1l-.75-.8Z"/>
              <g>
                <path class="cls-6" d="M58,83.1s-.06,0-.09,0c-2.23,0-4.04,1.35-4.04,3.01s1.81,3.01,4.04,3.01c.03,0,.06,0,.09,0v-6.02Z"/>
                <path class="cls-6" d="M57.91,83.09c-.45,0-.88,.06-1.28,.16v5.71c.4,.1,.83,.16,1.28,.16,.03,0,.06,0,.09,0v-6.02s-.06,0-.09,0Z"/>
                <path class="cls-6" d="M56.62,86.12v2.85c.33,.08,.69,.14,1.05,.15,.13-.12,.2-.19,.32-.32v-2.68h-1.38Z"/>
              </g>
            </g>
            <g id="_7" data-name="7">
              <path class="cls-17" d="M94.54,60.14c-7.38,0-13.36,5.98-13.36,13.36s5.98,13.36,13.36,13.36,13.36-5.98,13.36-13.36-5.98-13.36-13.36-13.36Zm0,22.02c-4.79,0-8.67-3.88-8.67-8.67s3.88-8.67,8.67-8.67,8.67,3.88,8.67,8.67-3.88,8.67-8.67,8.67Z"/>
              <path class="cls-12" d="M94.54,63.42c-5.57,0-10.08,4.51-10.08,10.08s4.51,10.08,10.08,10.08,10.08-4.51,10.08-10.08-4.51-10.08-10.08-10.08Zm0,18.35c-4.57,0-8.28-3.71-8.28-8.28s3.71-8.28,8.28-8.28,8.28,3.71,8.28,8.28-3.71,8.28-8.28,8.28Z"/>
              <path class="cls-17" d="M151.19,60.14c-7.38,0-13.36,5.98-13.36,13.36s5.98,13.36,13.36,13.36,13.36-5.98,13.36-13.36-5.98-13.36-13.36-13.36Zm0,22.02c-4.79,0-8.67-3.88-8.67-8.67s3.88-8.67,8.67-8.67,8.67,3.88,8.67,8.67-3.88,8.67-8.67,8.67Z"/>
              <path class="cls-12" d="M151.19,63.42c-5.57,0-10.08,4.51-10.08,10.08s4.51,10.08,10.08,10.08,10.08-4.51,10.08-10.08-4.51-10.08-10.08-10.08Zm0,18.35c-4.57,0-8.28-3.71-8.28-8.28s3.71-8.28,8.28-8.28,8.28,3.71,8.28,8.28-3.71,8.28-8.28,8.28Z"/>
              <circle class="cls-17" cx="151.19" cy="73.49" r="5.39" transform="translate(-9.84 25.24) rotate(-9.24)"/>
              <circle class="cls-12" cx="151.19" cy="73.49" r="3.8"/>
              <circle class="cls-17" cx="94.54" cy="73.49" r="4.79"/>
              <path class="cls-12" d="M114.93,68.99l-19.77,2.53c-.36,.05-.7,.21-.97,.47l-2.9,2.81c-.37,.35-.13,.97,.38,.99l23.94,.32-.68-7.12Z"/>
              <path class="cls-17" d="M91.81,74.93l2.81-2.72c.17-.16,.38-.26,.61-.29l19.12-2.45,.48,3.47-23.02,1.99Z"/>
              <path class="cls-17" d="M142.34,61.2l6.86,13.19c.56,1.08,1.91,1.48,2.96,.87h0c1-.57,1.37-1.83,.84-2.85l-6.86-13.19c-.56-1.08-1.91-1.48-2.96-.87h0c-1,.57-1.37,1.83-.84,2.85Z"/>
              <path class="cls-6" d="M107.95,52.16l8.88,.42,10.55-5.37c5.84-1.31,11.43-.22,15.26,1.01l7.85,11.1c.22,.25,.33,.59,.29,.92l-.5,3.75c-.03,.29-.15,.55-.36,.76l-12.87,12.78c-.83,.85-2,1.3-3.19,1.23l-19.79-1.24c-.98-.06-1.87-.58-2.41-1.39l-1.62-2.44,3.19-7.54,8.77-3.4-3.86-4.75-11.51-1.41-13.36-4.11-.96-2.7h14.55s.83,1.87,1.09,2.37Z"/>
              <polygon class="cls-21" points="113.22 66.22 137.23 64.69 137.49 61.27 135.69 58.47 118.15 55.16 93.28 52.48 106.64 56.59 118.15 58 122.01 62.75 113.25 66.15 113.22 66.22"/>
              <path class="cls-21" d="M107.95,52.16l8.88,.42,10.55-5.37c1.6-.21,9.29,1.82,13.51,3.11,.64,.2,1.09,.77,1.13,1.43l.02,.34c.04,.67-.46,1.25-1.13,1.3l-6.94,.54,16.53,5.39c.22,.25,.33,.59,.29,.92l-.5,3.75c-.03,.29-.15,.55-.36,.76l-12.87,12.78c-.83,.85-2,1.3-3.19,1.23l-19.79-1.24c-.98-.06-1.87-.58-2.41-1.39l19.02-.42,10.88-10.69,.06-4.18-2.83-4.25-15.37-4.11-5.28,1.73-13.67-1.16-1.12-3.26h3.51s.83,1.87,1.09,2.37Z"/>
              <path class="cls-12" d="M127.46,47.21s-.06,0-.08,0l-10.55,5.37h-.04s0,1.51,0,1.51l1.35,.11,5.28-1.73,4.03-5.27Z"/>
              <path class="cls-21" d="M133.96,77.5l-19-.86,16.54-.16,11.02-11.1,.08-4.54-3.05-4.74,9.22,2.98,.27,4.79-12.86,12.76c-.54,.56-1.28,.87-2.04,.87-.06,0-.12,0-.18,0Z"/>
              <path class="cls-6" d="M131.96,76.01l-.47,.47-16.54,.16,19,.86c.06,0,.12,0,.18,0,.76,0,1.5-.31,2.04-.87l-4.21-.63Z"/>
              <path class="cls-12" d="M150.49,59.33l-3.1-2.04-12.19-2.92-.32-.47-2.62-.26v1.21l6.54,1.75,2.83,4.25-.06,4.18,.94,.36,.08-4.54-2.74-4.25,8.32,3.25,.85,4.04s1.23,.41,1.26,.12l.5-3.75c.03-.33-.07-.67-.29-.92Z"/>
              <polygon class="cls-6" points="149.04 63.77 149.38 60.26 146.93 58.27 139.86 56.59 142.6 60.85 149.04 63.77"/>
              <path class="cls-17" d="M115.82,72.76l.94-3.79c1.14-5.58,20.42-4.28,20.42-4.28l-4.11,5.62c-2.55,3.49-6.96,5.07-11.15,4.01l-6.11-1.55Z"/>
              <path class="cls-6" d="M134.22,67.65l.72-.99-5.47-1.39c-1.75,.08-3.48,.23-5.07,.47l-1.68,6.59-.47-.12,.29-1.16-.26-.07,1.3-5.11c-.32,.06-.64,.11-.94,.18l-1.86,7.3,1.31,.33c3.33,.85,6.77-.07,9.21-2.35l-.89-.23,.25-1,1.78-.05s.07-.09,.11-.13l.42-.57-1.93-.49,2.28,.02,.48-.66-2.44-.62,2.85,.06Z"/>
              <path d="M118.33,66.94c-.83,.55-1.39,1.21-1.56,2.03l-.94,3.79,6.11,1.55c4.05,1.03,8.31-.43,10.9-3.69l-14.5-3.69Z"/>
              <path class="cls-21" d="M132.27,53.63l17.69,3.22c1.35,.17,2.54-.88,2.54-2.24v-.97c-2.36-3.65-5.88-6.49-9.88-9.17-2.7-.77-4.81-.48-6.55,.49-.65,.05-.62,.84,.05,1.28l7.59,6.05-.53,2.02-10.91-1.32v.63Z"/>
              <path class="cls-6" d="M152.43,53.58h-2.77c-.61,0-1.11,.5-1.11,1.11h0c0,.61,.5,1.11,1.11,1.11h2.5c.21-.34,.34-.74,.34-1.17v-.97s-.04-.04-.07-.07Z"/>
              <path class="cls-6" d="M136.06,44.96l12.33,7.12,3.16,.22c-.24-.31-.49-.62-.74-.92l-2.27-.3-10.94-6.75c-.58,.17-1.08,.38-1.53,.64Z"/>
              <path class="cls-6" d="M119.02,70.38c-.15,.6,.21,1.22,.82,1.37,.6,.15,1.22-.21,1.37-.82s-.21-1.22-.82-1.37-1.22,.21-1.37,.82Z"/>
              <path class="cls-14" d="M125.02,68.35c-.35,1.39,.49,2.81,1.88,3.16,1.39,.35,2.81-.49,3.16-1.88,.35-1.39-.49-2.81-1.88-3.16s-2.81,.49-3.16,1.88Z"/>
              <path class="cls-17" d="M125.71,68.52c-.26,1.01,.35,2.04,1.36,2.29s2.04-.35,2.29-1.36c.26-1.01-.35-2.04-1.36-2.29-1.01-.26-2.04,.35-2.29,1.36Z"/>
              <path class="cls-6" d="M136.56,52.79l3.96-.05c.48,0,.86-.4,.85-.87h0c0-.48-.4-.86-.87-.85l-3.96,.05c-.48,0-.86,.4-.85,.87h0c0,.48,.4,.86,.87,.85Z"/>
            </g>
          </g>
          <g>
            <path class="cls-7" d="M116.77,95.04c.98,5.14-11.53,11.84-27.97,14.97"/>
            <path class="cls-7" d="M111.4,95.46c1.56,1.57,4.94,.75,7.56-1.84"/>
            <path class="cls-7" d="M119.6,101.36c-2.32-2.34-2.6-5.8-.64-7.74"/>
          </g>
          <g>
            <path class="cls-7" d="M205.25,54.65c.98,5.14-11.53,11.84-27.97,14.97"/>
            <path class="cls-7" d="M199.88,55.07c1.56,1.57,4.94,.75,7.56-1.84"/>
            <path class="cls-7" d="M208.08,60.98c-2.32-2.34-2.6-5.8-.64-7.74"/>
          </g>
        </g>
      </g>
    </g>
  </g>
</svg>