<?xml version="1.0" encoding="UTF-8"?>
<svg id="Layer_2" data-name="Layer 2" xmlns="http://www.w3.org/2000/svg" viewBox="0 0 66.06 67.2">
  <defs>
    <style>
      .cls-1 {
        fill: #141610;
      }

      .cls-2 {
        fill: #535f31;
      }
    </style>
  </defs>
  <g id="Layer_1-2" data-name="Layer 1">
    <g>
      <path class="cls-2" d="M51.32,2.53c3.7,0,6.72,1.67,9,4.82,2.92,4.02,3.61,8.58,2.99,13.41-.8,6.17-3.06,11.68-7.57,16.07-3.41,3.33-7.48,5.65-12.02,7.09-1.68,.53-3.39,1-5.08,1.46-1.72,.46-3.49,.71-5.26,.71-.73,0-1.47-.04-2.2-.13-.15-.02-.31-.04-.46-.06-2.15-.32-3.73-1.62-4.9-3.39-3.13-4.7-5.05-9.82-5.09-15.53-.02-2.88,.59-5.65,2.11-8.15,1.32-2.18,3.17-3.35,5.26-3.35,.99,0,2.04,.26,3.12,.81,2.15,1.09,4.15,2.49,6.16,3.84,2.04,1.37,3.93,2.98,6.32,3.74,1.07,.34,2.11,.53,3.11,.53,1.88,0,3.62-.67,5.18-2.29,2.85-2.95,3.68-7.19,1.97-10.61-.69-1.38-1.71-2.39-3.31-2.62-.13-.02-.26-.03-.38-.03-.73,0-1.33,.34-1.73,1.02-.35,.61-.1,1.12,.54,1.2,1.85,.24,2.18,.45,2.23,1.41,.06,1.21-.91,2.43-2.21,2.79-.4,.11-.79,.16-1.19,.16-2.43,0-4.6-1.98-4.79-4.63-.28-3.89,2.7-7.68,6.59-8.17,.56-.07,1.1-.1,1.63-.1m-11.55,33.07c.13,0,.26,0,.39-.02,2.12-.24,3.71-2.19,3.49-4.29-.2-1.98-1.96-3.51-3.92-3.51-.15,0-.31,0-.47,.03-2.08,.26-3.66,2.28-3.39,4.37,.24,1.89,2.03,3.42,3.91,3.42M51.32,0h0c-.63,0-1.29,.04-1.95,.12-2.53,.32-4.85,1.64-6.52,3.74-1.65,2.06-2.46,4.6-2.28,7.13,.28,3.92,3.5,6.99,7.32,6.99,.62,0,1.25-.08,1.85-.25,.95-.26,1.8-.77,2.47-1.44-.22,1.45-.92,2.89-2.06,4.06-1,1.03-2.07,1.51-3.36,1.51-.69,0-1.48-.14-2.34-.41-1.49-.47-2.85-1.44-4.28-2.46-.45-.32-.91-.65-1.39-.97l-.63-.42c-1.84-1.24-3.74-2.52-5.8-3.57-1.42-.72-2.85-1.09-4.27-1.09-3.01,0-5.65,1.62-7.43,4.57-1.66,2.75-2.49,5.94-2.47,9.48,.04,5.86,1.84,11.4,5.51,16.91,1.72,2.58,3.95,4.09,6.64,4.49,.18,.03,.35,.05,.53,.07,.82,.1,1.66,.15,2.5,.15,1.96,0,3.95-.27,5.93-.8,1.66-.45,3.43-.93,5.19-1.49,5.05-1.6,9.43-4.19,13.03-7.69,4.58-4.46,7.38-10.37,8.32-17.56,.78-5.98-.35-10.96-3.45-15.23-2.79-3.84-6.61-5.87-11.05-5.87h0Zm-11.56,33.07c-.63,0-1.32-.59-1.39-1.2-.04-.33,.07-.7,.3-1,.23-.3,.56-.5,.89-.54,.05,0,.1,0,.15,0,.69,0,1.33,.56,1.4,1.23,.07,.72-.51,1.43-1.25,1.51-.03,0-.07,0-.1,0h0Z"/>
      <path class="cls-1" d="M15.82,43.78c.94,0,1.78,.59,2.37,1.66,.86,1.57,1.72,3.15,2.77,4.58,2.51,3.4,6.01,4.71,10.05,4.71,.21,0,.41,0,.62-.01,3.91-.13,7.62-1.22,11.29-2.44,.97-.32,1.92-.7,2.89-1.02,.34-.11,.67-.16,.99-.16,1.05,0,1.94,.58,2.23,1.7,.92,3.52,1.7,7.07,2.48,10.62,.19,.89-.2,1.23-1.23,1.23-1.06,0-2.12,0-3.18,0-1.53,0-3.06,0-4.59,0-1.45,0-2.9,0-4.35,0-1.14,0-2.27,0-3.41,.02-.01,0-.03,0-.04,0-.83,0-1.31-.3-1.36-1.18,0-.03,0-.06-.01-.1-.39-1.72-.57-2.22-1.15-2.22-.35,0-.84,.18-1.61,.37-.99,.25-1.98,.41-2.95,.41-1.46,0-2.89-.36-4.24-1.28-.24-.16-.47-.24-.67-.24-.32,0-.59,.19-.79,.54-.45,.8-.89,1.63-1.16,2.5-.24,.78-.57,1.19-1.44,1.19,0,0,0,0-.01,0-1.92,0-3.84,0-5.76,0-2.46,0-4.92,0-7.39,0-.8,0-1.59,0-2.39,0-1.05,0-1.42-.42-1.23-1.44,1.42-7.75,5.23-14.06,11.54-18.81,.57-.43,1.15-.63,1.7-.63m0-2.53c-1.11,0-2.23,.4-3.22,1.14C5.84,47.47,1.64,54.33,.09,62.76c-.23,1.27,0,2.34,.69,3.17,.69,.83,1.72,1.26,3.04,1.26,.8,0,1.6,0,2.39,0,1.23,0,2.46,0,3.69,0,1.23,0,2.46,0,3.69,0,2.25,0,4.07,0,5.75,0h.02c1.1,0,3.05-.39,3.86-2.98,.06-.2,.14-.41,.24-.62,1.29,.59,2.7,.89,4.21,.89,1.02,0,2.08-.13,3.24-.4,.29,1.91,1.76,3.11,3.84,3.11h.07c.98-.01,2.06-.02,3.38-.02,.72,0,1.45,0,2.17,0,.73,0,1.45,0,2.18,0h1.82c.92,0,1.84,0,2.76,0,1.06,0,2.13,0,3.19,0,1.37,0,2.41-.44,3.09-1.3,.45-.56,.92-1.54,.6-3.01-.72-3.31-1.54-7.06-2.5-10.72-.57-2.18-2.41-3.6-4.68-3.6-.59,0-1.18,.1-1.77,.29-.58,.19-1.13,.39-1.67,.58-.43,.16-.84,.31-1.25,.44-3.16,1.06-6.84,2.19-10.57,2.31-.18,0-.36,0-.54,0-3.61,0-6.16-1.17-8.02-3.68-.92-1.25-1.7-2.66-2.52-4.16l-.07-.13c-1.04-1.89-2.71-2.98-4.59-2.98h0Z"/>
    </g>
  </g>
</svg>