<?xml version="1.0" encoding="UTF-8"?>
<svg id="Layer_2" data-name="Layer 2" xmlns="http://www.w3.org/2000/svg" viewBox="0 0 8.37 8.36">
  <defs>
    <style>
      .cls-1 {
        fill: #99aa5e;
      }
    </style>
  </defs>
  <g id="Layer_1-2" data-name="Layer 1">
    <g>
      <g>
        <path class="cls-1" d="M5.28,1.83H3.06c-.76,0-1.39,.63-1.39,1.39v1.96c0,.76,.63,1.39,1.39,1.39h2.22c.77,0,1.39-.63,1.39-1.39v-1.96c0-.76-.62-1.39-1.39-1.39Zm-1.11,3.96c-.88,0-1.59-.72-1.59-1.59s.71-1.59,1.59-1.59,1.59,.72,1.59,1.59-.72,1.59-1.59,1.59Zm1.57-2.8c-.18,0-.33-.15-.33-.33s.15-.33,.33-.33,.33,.15,.33,.33-.15,.33-.33,.33Z"/>
        <path class="cls-1" d="M5.04,4.2c0,.48-.39,.86-.86,.86s-.86-.39-.86-.86,.39-.86,.86-.86,.86,.39,.86,.86Z"/>
      </g>
      <path class="cls-1" d="M6.94,0H1.43C.64,0,0,.64,0,1.43V6.94c0,.79,.64,1.43,1.43,1.43H6.94c.79,0,1.43-.64,1.43-1.43V1.43c0-.79-.64-1.43-1.43-1.43Zm.73,5.36c0,1.18-.97,2.14-2.15,2.14H2.85c-1.18,0-2.14-.96-2.14-2.14V3.01C.71,1.82,1.67,.86,2.85,.86h2.66c1.18,0,2.15,.96,2.15,2.14v2.35Z"/>
    </g>
  </g>
</svg>