<?xml version="1.0" encoding="UTF-8"?>
<svg id="Layer_2" data-name="Layer 2" xmlns="http://www.w3.org/2000/svg" viewBox="0 0 157.26 49.06">
  <defs>
    <style>
      .cls-1 {
        fill: #535f31;
      }

      .cls-2 {
        fill: #1e2118;
      }
    </style>
  </defs>
  <g id="Layer_1-2" data-name="Layer 1">
    <g>
      <g>
        <path class="cls-1" d="M37.47,1.85c2.7,0,4.9,1.22,6.57,3.52,2.13,2.93,2.64,6.26,2.18,9.79-.59,4.5-2.24,8.53-5.53,11.73-2.49,2.43-5.46,4.13-8.78,5.18-1.23,.39-2.47,.73-3.71,1.07-1.26,.34-2.55,.52-3.84,.52-.54,0-1.07-.03-1.61-.1-.11-.01-.22-.03-.34-.05-1.57-.23-2.72-1.19-3.58-2.47-2.28-3.43-3.69-7.17-3.71-11.34-.01-2.11,.43-4.12,1.54-5.95,.96-1.59,2.31-2.45,3.84-2.45,.73,0,1.49,.19,2.28,.59,1.57,.8,3.03,1.82,4.5,2.8,1.49,1,2.87,2.17,4.61,2.73,.78,.25,1.54,.39,2.27,.39,1.37,0,2.65-.49,3.78-1.67,2.08-2.16,2.68-5.25,1.44-7.75-.5-1.01-1.25-1.74-2.42-1.91-.1-.01-.19-.02-.28-.02-.54,0-.97,.25-1.26,.75-.26,.44-.07,.82,.39,.88,1.35,.17,1.59,.33,1.63,1.03,.04,.89-.67,1.78-1.61,2.04-.29,.08-.58,.12-.87,.12-1.77,0-3.36-1.44-3.5-3.38-.2-2.84,1.97-5.61,4.81-5.96,.41-.05,.81-.08,1.19-.08m-8.44,24.15c.09,0,.19,0,.28-.02,1.55-.18,2.71-1.6,2.55-3.13-.15-1.45-1.43-2.56-2.86-2.56-.11,0-.23,0-.34,.02-1.52,.19-2.67,1.67-2.48,3.19,.17,1.38,1.48,2.49,2.85,2.49M37.47,0h0c-.46,0-.94,.03-1.42,.09-1.85,.23-3.54,1.2-4.76,2.73-1.21,1.51-1.8,3.36-1.66,5.2,.21,2.86,2.55,5.1,5.35,5.1,.45,0,.91-.06,1.35-.18,.7-.19,1.31-.56,1.81-1.05-.16,1.06-.68,2.11-1.5,2.97-.73,.75-1.51,1.11-2.45,1.11-.51,0-1.08-.1-1.71-.3-1.09-.35-2.08-1.05-3.13-1.79-.33-.23-.67-.47-1.01-.71l-.46-.31c-1.34-.91-2.73-1.84-4.24-2.61-1.03-.53-2.08-.79-3.12-.79-2.2,0-4.12,1.19-5.42,3.34-1.21,2.01-1.82,4.34-1.8,6.92,.03,4.28,1.35,8.32,4.02,12.35,1.25,1.88,2.88,2.99,4.85,3.28,.13,.02,.26,.04,.39,.05,.6,.07,1.21,.11,1.83,.11,1.43,0,2.89-.2,4.33-.59,1.21-.33,2.51-.68,3.79-1.09,3.68-1.17,6.88-3.06,9.51-5.62,3.34-3.26,5.39-7.57,6.07-12.82,.57-4.37-.25-8-2.52-11.12-2.04-2.8-4.83-4.28-8.07-4.28h0Zm-8.44,24.15c-.46,0-.96-.43-1.02-.88-.03-.24,.05-.51,.22-.73,.17-.22,.41-.36,.65-.39,.04,0,.07,0,.11,0,.5,0,.97,.41,1.02,.9,.05,.53-.37,1.04-.92,1.1-.02,0-.05,0-.07,0h0Z"/>
        <path class="cls-2" d="M11.55,31.96c.68,0,1.3,.43,1.73,1.21,.63,1.14,1.25,2.3,2.03,3.34,1.84,2.48,4.39,3.44,7.34,3.44,.15,0,.3,0,.45,0,2.86-.09,5.56-.89,8.24-1.78,.71-.24,1.4-.51,2.11-.74,.25-.08,.49-.12,.73-.12,.77,0,1.42,.43,1.63,1.24,.67,2.57,1.24,5.16,1.81,7.75,.14,.65-.15,.9-.9,.9-.77,0-1.55,0-2.32,0-1.12,0-2.23,0-3.35,0-1.06,0-2.12,0-3.18,0-.83,0-1.66,0-2.49,.01,0,0-.02,0-.03,0-.6,0-.96-.22-.99-.86,0-.02,0-.05,0-.07-.29-1.26-.41-1.62-.84-1.62-.25,0-.61,.13-1.18,.27-.72,.18-1.44,.3-2.15,.3-1.07,0-2.11-.26-3.09-.93-.17-.12-.34-.18-.49-.18-.23,0-.43,.14-.58,.39-.33,.58-.65,1.19-.85,1.82-.18,.57-.42,.87-1.05,.87,0,0,0,0,0,0-1.4,0-2.8,0-4.2,0-1.8,0-3.59,0-5.39,0-.58,0-1.16,0-1.75,0-.77,0-1.04-.3-.9-1.05,1.04-5.66,3.82-10.26,8.42-13.73,.42-.31,.84-.46,1.24-.46m0-1.85c-.81,0-1.63,.29-2.35,.83C4.27,34.66,1.19,39.66,.06,45.82c-.17,.93,0,1.71,.5,2.31,.51,.61,1.25,.92,2.22,.92,.58,0,1.16,0,1.75,0,.9,0,1.8,0,2.7,0,.9,0,1.8,0,2.69,0,1.64,0,2.97,0,4.2,0h.01c.8,0,2.23-.28,2.82-2.17,.05-.15,.11-.3,.17-.46,.94,.43,1.97,.65,3.07,.65,.74,0,1.52-.1,2.36-.29,.21,1.39,1.28,2.27,2.8,2.27h.05c.72,0,1.5-.01,2.47-.01,.53,0,1.06,0,1.59,0,.53,0,1.06,0,1.59,0h1.33c.67,0,1.35,0,2.02,0,.78,0,1.55,0,2.33,0,1,0,1.76-.32,2.25-.95,.33-.41,.67-1.13,.44-2.2-.53-2.42-1.13-5.15-1.83-7.83-.42-1.59-1.76-2.63-3.42-2.63-.43,0-.86,.07-1.29,.21-.42,.14-.83,.28-1.22,.43-.32,.12-.62,.22-.91,.32-2.31,.77-4.99,1.6-7.72,1.69-.13,0-.26,0-.4,0-2.64,0-4.5-.85-5.85-2.69-.68-.91-1.24-1.94-1.84-3.03l-.05-.1c-.76-1.38-1.98-2.17-3.35-2.17h0Z"/>
      </g>
      <g>
        <polygon class="cls-2" points="64.66 37.09 64.63 24.25 61.07 24.25 57 31.09 52.81 24.25 49.25 24.25 49.25 37.09 53.2 37.09 53.2 31.44 55.99 35.94 57.89 35.94 60.69 31.24 60.72 37.09 64.66 37.09"/>
        <path class="cls-2" d="M70.62,34.86h4.88l.86,2.24h4.48l-5.61-12.84h-4.26l-5.61,12.84h4.4l.86-2.24Zm1.2-3.12l1.24-3.23,1.24,3.23h-2.49Z"/>
        <polygon class="cls-2" points="93.35 24.25 89.28 31.09 85.1 24.25 81.54 24.25 81.54 37.09 85.48 37.09 85.48 31.44 88.27 35.94 90.18 35.94 92.97 31.24 93 37.09 96.94 37.09 96.91 24.25 93.35 24.25"/>
        <polygon class="cls-2" points="102.98 31.44 105.77 35.94 107.67 35.94 110.47 31.24 110.5 37.09 114.44 37.09 114.41 24.25 110.85 24.25 106.78 31.09 102.59 24.25 99.04 24.25 99.04 37.09 102.98 37.09 102.98 31.44"/>
        <path class="cls-2" d="M128.46,25.86c-.65-.61-1.41-1.07-2.29-1.4s-1.85-.5-2.9-.5-2,.17-2.89,.5c-.89,.33-1.65,.8-2.3,1.4-.65,.61-1.15,1.31-1.51,2.13-.36,.81-.54,1.71-.54,2.69s.18,1.86,.54,2.68c.36,.82,.86,1.53,1.51,2.14s1.42,1.07,2.3,1.4c.89,.33,1.85,.5,2.89,.5s2.02-.17,2.9-.5c.88-.33,1.64-.8,2.29-1.4,.65-.61,1.15-1.32,1.51-2.14,.36-.82,.54-1.71,.54-2.68s-.18-1.87-.54-2.69c-.36-.81-.87-1.52-1.51-2.13Zm-2.53,6.16c-.15,.4-.35,.73-.61,1.01-.26,.28-.57,.49-.92,.63s-.72,.22-1.13,.22-.78-.07-1.13-.22-.65-.36-.92-.63c-.26-.28-.47-.61-.61-1.01s-.22-.85-.22-1.35,.07-.95,.22-1.35c.15-.4,.35-.73,.61-1.01,.26-.28,.57-.49,.92-.63s.72-.22,1.13-.22,.78,.07,1.13,.22,.65,.36,.92,.63c.26,.28,.47,.61,.61,1.01,.15,.4,.22,.85,.22,1.35s-.07,.95-.22,1.35Z"/>
        <polygon class="cls-2" points="134.69 37.09 139.02 37.09 139.02 27.61 142.78 27.61 142.78 24.25 130.93 24.25 130.93 27.61 134.69 27.61 134.69 37.09"/>
        <polygon class="cls-2" points="148.23 32.36 152.23 32.36 152.23 37.09 156.56 37.09 156.56 24.25 152.23 24.25 152.23 28.8 148.23 28.8 148.23 24.25 143.9 24.25 143.9 37.09 148.23 37.09 148.23 32.36"/>
        <polygon class="cls-1" points="58.55 39.3 54.79 45.68 50.97 39.3 49.5 39.3 49.5 48.92 51.21 48.92 51.21 42.63 54.37 47.84 55.18 47.84 58.33 42.53 58.33 48.92 60.04 48.92 60.02 39.3 58.55 39.3"/>
        <polygon class="cls-1" points="64.42 44.77 69.06 44.77 69.06 43.3 64.42 43.3 64.42 40.81 69.65 40.81 69.65 39.3 62.63 39.3 62.63 48.92 69.85 48.92 69.85 47.41 64.42 47.41 64.42 44.77"/>
        <path class="cls-1" d="M78.8,39.9c-.79-.4-1.7-.6-2.73-.6h-4.22v9.62h4.22c1.03,0,1.94-.2,2.73-.6,.79-.4,1.41-.96,1.85-1.68,.44-.72,.66-1.57,.66-2.53s-.22-1.81-.66-2.53c-.44-.72-1.06-1.29-1.85-1.68Zm.27,5.95c-.3,.49-.71,.88-1.24,1.15-.53,.28-1.15,.41-1.88,.41h-2.32v-6.6h2.32c.72,0,1.35,.14,1.88,.41,.53,.28,.94,.66,1.24,1.14,.3,.49,.45,1.07,.45,1.75s-.15,1.24-.45,1.73Z"/>
        <rect class="cls-1" x="83.21" y="39.3" width="1.79" height="9.62"/>
        <path class="cls-1" d="M90.55,39.3l-4.33,9.62h1.83l.96-2.23h4.81l.95,2.23h1.88l-4.34-9.62h-1.76Zm-.94,5.99l1.81-4.21,1.8,4.21h-3.61Z"/>
        <path class="cls-1" d="M98.71,46.74c-.32,0-.59,.1-.81,.31s-.33,.48-.33,.82,.11,.62,.33,.83,.49,.32,.81,.32c.3,0,.56-.11,.78-.32,.22-.22,.33-.49,.33-.83s-.11-.61-.33-.82c-.22-.21-.48-.31-.78-.31Z"/>
        <path class="cls-1" d="M108.62,39.9c-.79-.4-1.7-.6-2.73-.6h-4.22v9.62h4.22c1.03,0,1.94-.2,2.73-.6,.79-.4,1.41-.96,1.85-1.68,.44-.72,.66-1.57,.66-2.53s-.22-1.81-.66-2.53c-.44-.72-1.06-1.29-1.85-1.68Zm.27,5.95c-.3,.49-.71,.88-1.24,1.15-.53,.28-1.15,.41-1.88,.41h-2.32v-6.6h2.32c.72,0,1.35,.14,1.88,.41,.53,.28,.94,.66,1.24,1.14,.3,.49,.45,1.07,.45,1.75s-.15,1.24-.45,1.73Z"/>
        <rect class="cls-1" x="113.02" y="39.3" width="1.79" height="9.62"/>
        <path class="cls-1" d="M119.48,41.68c.31-.3,.68-.54,1.11-.7,.43-.17,.9-.25,1.41-.25s1,.09,1.44,.27c.43,.18,.84,.46,1.22,.83l1.13-1.1c-.45-.51-1-.9-1.66-1.17s-1.39-.4-2.19-.4-1.47,.12-2.1,.36c-.63,.24-1.18,.59-1.65,1.04s-.84,.97-1.09,1.57-.38,1.26-.38,1.98,.13,1.38,.38,1.98,.62,1.12,1.09,1.57,1.01,.79,1.64,1.04c.63,.24,1.32,.36,2.07,.36,.69,0,1.36-.1,2.02-.31,.66-.21,1.24-.51,1.73-.91v-3.82h-1.68v2.97c-.2,.11-.39,.21-.6,.28-.44,.15-.9,.23-1.38,.23-.51,0-.98-.08-1.4-.25-.42-.17-.79-.4-1.1-.7s-.56-.66-.73-1.08-.26-.87-.26-1.35,.09-.95,.26-1.36c.17-.41,.42-.77,.73-1.07Z"/>
        <rect class="cls-1" x="127.99" y="39.3" width="1.79" height="9.62"/>
        <polygon class="cls-1" points="139.29 39.3 131.13 39.3 131.13 40.81 134.31 40.81 134.31 48.92 136.1 48.92 136.1 40.81 139.29 40.81 139.29 39.3"/>
        <path class="cls-1" d="M143.13,39.3l-4.33,9.62h1.83l.96-2.23h4.81l.95,2.23h1.88l-4.34-9.62h-1.76Zm-.94,5.99l1.81-4.21,1.8,4.21h-3.61Z"/>
        <polygon class="cls-1" points="152.23 47.41 152.23 39.3 150.44 39.3 150.44 48.92 157.26 48.92 157.26 47.41 152.23 47.41"/>
      </g>
    </g>
  </g>
</svg>