<?xml version="1.0" encoding="UTF-8"?>
<svg id="Layer_2" data-name="Layer 2" xmlns="http://www.w3.org/2000/svg" viewBox="0 0 147.93 108.76">
  <defs>
    <style>
      .cls-1 {
        fill: #141610;
      }

      .cls-2 {
        fill: #535f31;
      }
    </style>
  </defs>
  <g id="Layer_1-2" data-name="Layer 1">
    <g>
      <g>
        <path class="cls-2" d="M92.26,2.53c3.7,0,6.72,1.67,9,4.82,2.92,4.02,3.61,8.58,2.99,13.41-.8,6.17-3.06,11.68-7.57,16.07-3.41,3.33-7.48,5.65-12.02,7.09-1.68,.53-3.39,1-5.08,1.46-1.72,.46-3.49,.71-5.26,.71-.73,0-1.47-.04-2.2-.13-.15-.02-.31-.04-.46-.06-2.15-.32-3.73-1.62-4.9-3.39-3.13-4.7-5.05-9.82-5.09-15.53-.02-2.88,.59-5.65,2.11-8.15,1.32-2.18,3.17-3.35,5.26-3.35,.99,0,2.04,.26,3.12,.81,2.15,1.09,4.15,2.49,6.16,3.84,2.04,1.37,3.93,2.98,6.32,3.74,1.07,.34,2.11,.53,3.11,.53,1.88,0,3.62-.67,5.18-2.29,2.85-2.95,3.68-7.19,1.97-10.61-.69-1.38-1.71-2.39-3.31-2.62-.13-.02-.26-.03-.38-.03-.73,0-1.33,.34-1.73,1.02-.35,.61-.1,1.12,.54,1.2,1.85,.24,2.18,.45,2.23,1.41,.06,1.21-.91,2.43-2.21,2.79-.4,.11-.79,.16-1.19,.16-2.43,0-4.6-1.98-4.79-4.63-.28-3.89,2.7-7.68,6.59-8.17,.56-.07,1.1-.1,1.63-.1m-11.55,33.07c.13,0,.26,0,.39-.02,2.12-.24,3.71-2.19,3.49-4.29-.2-1.98-1.96-3.51-3.92-3.51-.15,0-.31,0-.47,.03-2.08,.26-3.66,2.28-3.39,4.37,.24,1.89,2.03,3.42,3.91,3.42M92.26,0h0c-.63,0-1.29,.04-1.95,.12-2.53,.32-4.85,1.64-6.52,3.74-1.65,2.06-2.46,4.6-2.28,7.13,.28,3.92,3.5,6.99,7.32,6.99,.62,0,1.25-.08,1.85-.25,.95-.26,1.8-.77,2.47-1.44-.22,1.45-.92,2.89-2.06,4.06-1,1.03-2.07,1.51-3.36,1.51-.69,0-1.48-.14-2.34-.41-1.49-.47-2.85-1.44-4.28-2.46-.45-.32-.91-.65-1.39-.97l-.63-.42c-1.84-1.24-3.74-2.52-5.8-3.57-1.42-.72-2.85-1.09-4.27-1.09-3.01,0-5.65,1.62-7.43,4.57-1.66,2.75-2.49,5.94-2.47,9.48,.04,5.86,1.84,11.4,5.51,16.91,1.72,2.58,3.95,4.09,6.64,4.49,.18,.03,.35,.05,.53,.07,.82,.1,1.66,.15,2.5,.15,1.96,0,3.95-.27,5.93-.8,1.66-.45,3.43-.93,5.19-1.49,5.05-1.6,9.43-4.19,13.03-7.69,4.58-4.46,7.38-10.37,8.32-17.56,.78-5.98-.35-10.96-3.45-15.23-2.79-3.84-6.61-5.87-11.05-5.87h0Zm-11.56,33.07c-.63,0-1.32-.59-1.39-1.2-.04-.33,.07-.7,.3-1,.23-.3,.56-.5,.89-.54,.05,0,.1,0,.15,0,.69,0,1.33,.56,1.4,1.23,.07,.72-.51,1.43-1.25,1.51-.03,0-.07,0-.1,0h0Z"/>
        <path class="cls-1" d="M56.75,43.78c.94,0,1.78,.59,2.37,1.66,.86,1.57,1.72,3.15,2.77,4.58,2.51,3.4,6.01,4.71,10.05,4.71,.21,0,.41,0,.62-.01,3.91-.13,7.62-1.22,11.29-2.44,.97-.32,1.92-.7,2.89-1.02,.34-.11,.67-.16,.99-.16,1.05,0,1.94,.58,2.23,1.7,.92,3.52,1.7,7.07,2.48,10.62,.19,.89-.2,1.23-1.23,1.23-1.06,0-2.12,0-3.18,0-1.53,0-3.06,0-4.59,0-1.45,0-2.9,0-4.35,0-1.14,0-2.27,0-3.41,.02-.01,0-.03,0-.04,0-.83,0-1.31-.3-1.36-1.18,0-.03,0-.06-.01-.1-.39-1.72-.57-2.22-1.15-2.22-.35,0-.84,.18-1.61,.37-.99,.25-1.98,.41-2.95,.41-1.46,0-2.89-.36-4.24-1.28-.24-.16-.47-.24-.67-.24-.32,0-.59,.19-.79,.54-.45,.8-.89,1.63-1.16,2.5-.24,.78-.57,1.19-1.44,1.19,0,0,0,0-.01,0-1.92,0-3.84,0-5.76,0-2.46,0-4.92,0-7.39,0-.8,0-1.59,0-2.39,0-1.05,0-1.42-.42-1.23-1.44,1.42-7.75,5.23-14.06,11.54-18.81,.57-.43,1.15-.63,1.7-.63m0-2.53c-1.11,0-2.23,.4-3.22,1.14-6.75,5.08-10.96,11.94-12.51,20.37-.23,1.27,0,2.34,.69,3.17,.69,.83,1.72,1.26,3.04,1.26,.8,0,1.6,0,2.39,0,1.23,0,2.46,0,3.69,0,1.23,0,2.46,0,3.69,0,2.25,0,4.07,0,5.75,0h.02c1.1,0,3.05-.39,3.86-2.98,.06-.2,.14-.41,.24-.62,1.29,.59,2.7,.89,4.21,.89,1.02,0,2.08-.13,3.24-.4,.29,1.91,1.76,3.11,3.84,3.11h.07c.98-.01,2.06-.02,3.38-.02,.72,0,1.45,0,2.17,0,.73,0,1.45,0,2.18,0h1.82c.92,0,1.84,0,2.76,0,1.06,0,2.13,0,3.19,0,1.37,0,2.41-.44,3.09-1.3,.45-.56,.92-1.54,.6-3.01-.72-3.31-1.54-7.06-2.5-10.72-.57-2.18-2.41-3.6-4.68-3.6-.59,0-1.18,.1-1.77,.29-.58,.19-1.13,.39-1.67,.58-.43,.16-.84,.31-1.25,.44-3.16,1.06-6.84,2.19-10.57,2.31-.18,0-.36,0-.54,0-3.61,0-6.16-1.17-8.02-3.68-.92-1.25-1.7-2.66-2.52-4.16l-.07-.13c-1.04-1.89-2.71-2.98-4.59-2.98h0Z"/>
      </g>
      <g>
        <polygon class="cls-2" points="21.1 92.37 21.05 74.78 16.18 74.78 10.61 84.14 4.87 74.78 0 74.78 0 92.37 5.4 92.37 5.4 84.62 9.22 90.78 11.83 90.78 15.66 84.34 15.7 92.37 21.1 92.37"/>
        <path class="cls-2" d="M29.27,89.3h6.69l1.18,3.07h6.13l-7.69-17.59h-5.83l-7.69,17.59h6.03l1.18-3.07Zm1.64-4.27l1.7-4.43,1.7,4.43h-3.41Z"/>
        <polygon class="cls-2" points="60.4 74.78 54.83 84.14 49.09 74.78 44.22 74.78 44.22 92.37 49.62 92.37 49.62 84.62 53.44 90.78 56.05 90.78 59.88 84.34 59.92 92.37 65.32 92.37 65.27 74.78 60.4 74.78"/>
        <polygon class="cls-2" points="73.59 84.62 77.41 90.78 80.02 90.78 83.85 84.34 83.89 92.37 89.29 92.37 89.24 74.78 84.37 74.78 78.79 84.14 73.06 74.78 68.19 74.78 68.19 92.37 73.59 92.37 73.59 84.62"/>
        <path class="cls-2" d="M108.49,76.98c-.89-.83-1.93-1.47-3.14-1.92s-2.53-.68-3.97-.68-2.74,.23-3.96,.68c-1.21,.45-2.27,1.09-3.15,1.92-.89,.83-1.58,1.8-2.07,2.91-.49,1.11-.74,2.34-.74,3.68s.25,2.55,.74,3.67c.49,1.12,1.18,2.1,2.07,2.93,.89,.83,1.94,1.47,3.15,1.92,1.21,.45,2.53,.68,3.96,.68s2.76-.23,3.97-.68c1.21-.45,2.25-1.09,3.14-1.92,.89-.83,1.58-1.8,2.07-2.93,.49-1.12,.74-2.34,.74-3.67s-.25-2.57-.74-3.68c-.49-1.11-1.19-2.09-2.07-2.91Zm-3.47,8.44c-.2,.54-.48,1-.84,1.38-.36,.38-.78,.67-1.26,.87s-.99,.3-1.54,.3-1.07-.1-1.55-.3-.9-.49-1.26-.87c-.36-.38-.64-.84-.84-1.38s-.3-1.16-.3-1.85,.1-1.3,.3-1.85c.2-.54,.48-1,.84-1.38,.36-.38,.78-.67,1.26-.87s.99-.3,1.55-.3,1.07,.1,1.54,.3,.9,.49,1.26,.87c.36,.38,.64,.84,.84,1.38,.2,.54,.3,1.16,.3,1.85s-.1,1.3-.3,1.85Z"/>
        <polygon class="cls-2" points="117.03 92.37 122.96 92.37 122.96 79.38 128.11 79.38 128.11 74.78 111.88 74.78 111.88 79.38 117.03 79.38 117.03 92.37"/>
        <polygon class="cls-2" points="135.57 85.88 141.05 85.88 141.05 92.37 146.98 92.37 146.98 74.78 141.05 74.78 141.05 81.01 135.57 81.01 135.57 74.78 129.64 74.78 129.64 92.37 135.57 92.37 135.57 85.88"/>
        <polygon class="cls-1" points="12.73 95.39 7.58 104.13 2.35 95.39 .34 95.39 .34 108.57 2.67 108.57 2.67 99.96 7 107.08 8.11 107.08 12.43 99.82 12.43 108.57 14.78 108.57 14.74 95.39 12.73 95.39"/>
        <polygon class="cls-1" points="20.77 102.89 27.13 102.89 27.13 100.87 20.77 100.87 20.77 97.46 27.94 97.46 27.94 95.39 18.32 95.39 18.32 108.57 28.2 108.57 28.2 106.5 20.77 106.5 20.77 102.89"/>
        <path class="cls-1" d="M40.47,96.21c-1.09-.55-2.33-.82-3.74-.82h-5.78v13.18h5.78c1.41,0,2.65-.27,3.74-.82,1.09-.55,1.93-1.31,2.53-2.31,.6-.99,.9-2.15,.9-3.46s-.3-2.47-.9-3.46c-.6-.99-1.45-1.76-2.53-2.31Zm.38,8.14c-.41,.68-.97,1.21-1.69,1.58-.72,.38-1.58,.56-2.57,.56h-3.18v-9.04h3.18c.99,0,1.85,.19,2.57,.56,.72,.38,1.29,.9,1.69,1.56,.41,.67,.61,1.46,.61,2.39s-.2,1.69-.61,2.37Z"/>
        <rect class="cls-1" x="46.5" y="95.39" width="2.45" height="13.18"/>
        <path class="cls-1" d="M56.56,95.39l-5.93,13.18h2.5l1.31-3.05h6.59l1.31,3.05h2.58l-5.95-13.18h-2.41Zm-1.29,8.21l2.48-5.77,2.47,5.77h-4.95Z"/>
        <path class="cls-1" d="M67.74,105.58c-.44,0-.81,.14-1.11,.42s-.45,.66-.45,1.12,.15,.84,.45,1.14,.67,.44,1.11,.44c.41,0,.77-.15,1.07-.44,.3-.29,.45-.67,.45-1.14s-.15-.84-.45-1.12c-.3-.28-.66-.42-1.07-.42Z"/>
        <path class="cls-1" d="M81.31,96.21c-1.09-.55-2.33-.82-3.74-.82h-5.78v13.18h5.78c1.41,0,2.65-.27,3.74-.82,1.09-.55,1.93-1.31,2.53-2.31,.6-.99,.9-2.15,.9-3.46s-.3-2.47-.9-3.46c-.6-.99-1.45-1.76-2.53-2.31Zm.38,8.14c-.41,.68-.97,1.21-1.69,1.58-.72,.38-1.58,.56-2.57,.56h-3.18v-9.04h3.18c.99,0,1.85,.19,2.57,.56,.72,.38,1.29,.9,1.69,1.56,.41,.67,.61,1.46,.61,2.39s-.2,1.69-.61,2.37Z"/>
        <rect class="cls-1" x="87.34" y="95.39" width="2.45" height="13.18"/>
        <path class="cls-1" d="M96.19,98.65c.43-.41,.93-.73,1.52-.96,.58-.23,1.23-.34,1.93-.34s1.37,.12,1.97,.37c.6,.24,1.15,.62,1.67,1.14l1.54-1.51c-.61-.7-1.37-1.24-2.27-1.6s-1.9-.55-3-.55-2.01,.17-2.87,.5c-.86,.33-1.61,.81-2.26,1.42s-1.15,1.33-1.5,2.15-.53,1.72-.53,2.71,.18,1.9,.53,2.71,.85,1.53,1.49,2.15,1.39,1.09,2.25,1.42c.86,.33,1.8,.5,2.83,.5,.94,0,1.86-.14,2.77-.42,.9-.28,1.69-.7,2.37-1.25v-5.23h-2.3v4.07c-.27,.15-.54,.29-.82,.38-.61,.21-1.24,.31-1.89,.31-.7,0-1.34-.11-1.92-.34-.58-.23-1.08-.55-1.51-.96s-.76-.91-1-1.48-.36-1.19-.36-1.85,.12-1.3,.36-1.86c.24-.56,.57-1.05,1-1.47Z"/>
        <rect class="cls-1" x="107.85" y="95.39" width="2.45" height="13.18"/>
        <polygon class="cls-1" points="123.32 95.39 112.14 95.39 112.14 97.46 116.51 97.46 116.51 108.57 118.96 108.57 118.96 97.46 123.32 97.46 123.32 95.39"/>
        <path class="cls-1" d="M128.58,95.39l-5.93,13.18h2.5l1.31-3.05h6.59l1.31,3.05h2.58l-5.95-13.18h-2.41Zm-1.29,8.21l2.48-5.77,2.47,5.77h-4.95Z"/>
        <polygon class="cls-1" points="141.04 106.5 141.04 95.39 138.59 95.39 138.59 108.57 147.93 108.57 147.93 106.5 141.04 106.5"/>
      </g>
    </g>
  </g>
</svg>