<?xml version="1.0" encoding="UTF-8"?>
<svg id="Layer_2" data-name="Layer 2" xmlns="http://www.w3.org/2000/svg" viewBox="0 0 10.57 7.43">
  <defs>
    <style>
      .cls-1 {
        fill: #99aa5e;
      }
    </style>
  </defs>
  <g id="Layer_1-2" data-name="Layer 1">
    <path class="cls-1" d="M5.3,7.43c-1.21-.06-2.39-.1-3.58-.19-1.08-.08-1.48-.48-1.6-1.55C-.04,4.29-.05,2.88,.16,1.48,.29,.62,.72,.16,1.58,.12,3.39,.05,5.19,.02,7,0c.67,0,1.33,.06,2,.12,.82,.07,1.3,.52,1.41,1.31,.21,1.49,.22,2.97,0,4.46-.12,.85-.56,1.28-1.44,1.34-1.23,.09-2.46,.13-3.67,.19Zm-1.08-2.18c.93-.53,1.81-1.03,2.74-1.56-.94-.53-1.82-1.03-2.74-1.56v3.12Z"/>
  </g>
</svg>